<svg xmlns="http://www.w3.org/2000/svg" xmlns:xlink="http://www.w3.org/1999/xlink" version="1.1" width="256" height="256" viewBox="0 0 256 256" xml:space="preserve">
<g style="stroke: none; stroke-width: 0; stroke-dasharray: none; stroke-linecap: butt; stroke-linejoin: miter; stroke-miterlimit: 10; fill: none; fill-rule: nonzero; opacity: 1;" transform="translate(1.4065934065934016 1.4065934065934016) scale(2.81 2.81)">
	<path d="M 89 12.719 H 1 c -0.552 0 -1 0.448 -1 1 v 62.563 c 0 0.553 0.448 1 1 1 h 88 c 0.553 0 1 -0.447 1 -1 V 13.719 C 90 13.167 89.553 12.719 89 12.719 z M 13.06 75.281 H 2 V 68 h 11.06 V 75.281 z M 13.06 66 H 2 v -9 h 11.06 V 66 z M 13.06 55 H 2 v -9 h 11.06 V 55 z M 13.06 44 H 2 v -9 h 11.06 V 44 z M 13.06 33 H 2 v -9 h 11.06 V 33 z M 13.06 22 H 2 v -7.281 h 11.06 V 22 z M 56.487 45.873 l -22 12.283 c -0.151 0.085 -0.319 0.127 -0.487 0.127 c -0.175 0 -0.35 -0.046 -0.506 -0.138 C 33.188 57.966 33 57.638 33 57.283 V 32.717 c 0 -0.354 0.188 -0.683 0.494 -0.862 c 0.306 -0.179 0.685 -0.184 0.994 -0.011 l 22 12.283 C 56.804 44.304 57 44.638 57 45 S 56.804 45.696 56.487 45.873 z M 88 75.281 H 76.94 V 68 H 88 V 75.281 z M 88 66 H 76.94 v -9 H 88 V 66 z M 88 55 H 76.94 v -9 H 88 V 55 z M 88 44 H 76.94 v -9 H 88 V 44 z M 88 33 H 76.94 v -9 H 88 V 33 z M 88 22 H 76.94 v -7.281 H 88 V 22 z" style="stroke: none; stroke-width: 1; stroke-dasharray: none; stroke-linecap: butt; stroke-linejoin: miter; stroke-miterlimit: 10; fill: rgb(0,0,0); fill-rule: nonzero; opacity: 1;" transform=" matrix(1 0 0 1 0 0) " stroke-linecap="round"/>
</g>
</svg>